<svg xmlns="http://www.w3.org/2000/svg" xmlns:xlink="http://www.w3.org/1999/xlink" width="1280" zoomAndPan="magnify" viewBox="0 0 960 585.000005" height="780" preserveAspectRatio="xMidYMid meet" version="1.0"><defs><clipPath id="eb3f0c91f3"><path d="M 446.421875 108.6875 L 508.445312 108.6875 L 508.445312 454.980469 L 446.421875 454.980469 Z M 446.421875 108.6875 " clip-rule="nonzero"/></clipPath><clipPath id="74d778e4ad"><path d="M 387.320312 103.898438 L 563.425781 103.898438 L 563.425781 154.148438 L 387.320312 154.148438 Z M 387.320312 103.898438 " clip-rule="nonzero"/></clipPath><clipPath id="15ee7d69db"><path d="M 389.375 429.855469 L 565.480469 429.855469 L 565.480469 480.105469 L 389.375 480.105469 Z M 389.375 429.855469 " clip-rule="nonzero"/></clipPath><clipPath id="443dc1da21"><path d="M 455 186 L 640 186 L 640 405 L 455 405 Z M 455 186 " clip-rule="nonzero"/></clipPath><clipPath id="4a211377c6"><path d="M 617.734375 186.226562 L 639.28125 203.574219 L 477.46875 404.554688 L 455.921875 387.210938 Z M 617.734375 186.226562 " clip-rule="nonzero"/></clipPath><clipPath id="8e458b62de"><path d="M 617.734375 186.226562 L 639.28125 203.574219 L 477.523438 404.488281 L 455.976562 387.140625 Z M 617.734375 186.226562 " clip-rule="nonzero"/></clipPath><clipPath id="5a0c89ee0a"><path d="M 316 189 L 471 189 L 471 371 L 316 371 Z M 316 189 " clip-rule="nonzero"/></clipPath><clipPath id="b5c781c3d1"><path d="M 316.191406 208.011719 L 338.816406 189.636719 L 470.890625 352.246094 L 448.265625 370.625 Z M 316.191406 208.011719 " clip-rule="nonzero"/></clipPath><clipPath id="2762f352ca"><path d="M 316.191406 208.011719 L 338.816406 189.636719 L 470.859375 352.207031 L 448.234375 370.582031 Z M 316.191406 208.011719 " clip-rule="nonzero"/></clipPath><clipPath id="607c8cb7f5"><path d="M 614.882812 193.113281 L 648.753906 193.113281 L 648.753906 387.683594 L 614.882812 387.683594 Z M 614.882812 193.113281 " clip-rule="nonzero"/></clipPath><clipPath id="4037cba962"><path d="M 308.480469 196.414062 L 342.351562 196.414062 L 342.351562 387.683594 L 308.480469 387.683594 Z M 308.480469 196.414062 " clip-rule="nonzero"/></clipPath><clipPath id="0315126834"><path d="M 617.847656 186.226562 L 648.753906 186.226562 L 648.753906 194.917969 L 617.847656 194.917969 Z M 617.847656 186.226562 " clip-rule="nonzero"/></clipPath><clipPath id="cd0b5b9f1b"><path d="M 308.480469 189.640625 L 338.605469 189.640625 L 338.605469 197.910156 L 308.480469 197.910156 Z M 308.480469 189.640625 " clip-rule="nonzero"/></clipPath></defs><g clip-path="url(#eb3f0c91f3)"><path fill="#d9d9d9" d="M 446.421875 108.6875 L 508.445312 108.6875 L 508.445312 454.890625 L 446.421875 454.890625 Z M 446.421875 108.6875 " fill-opacity="1" fill-rule="nonzero"/></g><g clip-path="url(#74d778e4ad)"><path fill="#d9d9d9" d="M 563.425781 103.898438 L 563.425781 154.148438 L 387.355469 154.148438 L 387.355469 103.898438 Z M 563.425781 103.898438 " fill-opacity="1" fill-rule="nonzero"/></g><g clip-path="url(#15ee7d69db)"><path fill="#d9d9d9" d="M 565.480469 429.855469 L 565.480469 480.105469 L 389.410156 480.105469 L 389.410156 429.855469 Z M 565.480469 429.855469 " fill-opacity="1" fill-rule="nonzero"/></g><g clip-path="url(#443dc1da21)"><g clip-path="url(#4a211377c6)"><g clip-path="url(#8e458b62de)"><path fill="#d9d9d9" d="M 617.734375 186.226562 L 639.28125 203.574219 L 477.535156 404.472656 L 455.992188 387.125 Z M 617.734375 186.226562 " fill-opacity="1" fill-rule="nonzero"/></g></g></g><g clip-path="url(#5a0c89ee0a)"><g clip-path="url(#b5c781c3d1)"><g clip-path="url(#2762f352ca)"><path fill="#d9d9d9" d="M 316.191406 208.011719 L 338.816406 189.636719 L 470.890625 352.246094 L 448.265625 370.625 Z M 316.191406 208.011719 " fill-opacity="1" fill-rule="nonzero"/></g></g></g><g clip-path="url(#607c8cb7f5)"><path fill="#d9d9d9" d="M 614.882812 193.113281 L 648.753906 193.113281 L 648.753906 387.730469 L 614.882812 387.730469 Z M 614.882812 193.113281 " fill-opacity="1" fill-rule="nonzero"/></g><g clip-path="url(#4037cba962)"><path fill="#d9d9d9" d="M 308.480469 196.414062 L 342.351562 196.414062 L 342.351562 387.722656 L 308.480469 387.722656 Z M 308.480469 196.414062 " fill-opacity="1" fill-rule="nonzero"/></g><g clip-path="url(#0315126834)"><path fill="#d9d9d9" d="M 617.847656 186.226562 L 648.738281 186.226562 L 648.738281 194.917969 L 617.847656 194.917969 Z M 617.847656 186.226562 " fill-opacity="1" fill-rule="nonzero"/></g><g clip-path="url(#cd0b5b9f1b)"><path fill="#d9d9d9" d="M 308.480469 189.640625 L 338.597656 189.640625 L 338.597656 197.910156 L 308.480469 197.910156 Z M 308.480469 189.640625 " fill-opacity="1" fill-rule="nonzero"/></g><path stroke-linecap="butt" transform="matrix(0.74872, 0, 0, 0.74872, 241.510192, 274.675423)" fill="none" stroke-linejoin="miter" d="M 0.00203968 15.000034 L 637.057937 15.000034 " stroke="#0c0c0c" stroke-width="30" stroke-opacity="1" stroke-miterlimit="4"/></svg>