<svg xmlns="http://www.w3.org/2000/svg" xmlns:xlink="http://www.w3.org/1999/xlink" width="1280" zoomAndPan="magnify" viewBox="0 0 960 585.000005" height="780" preserveAspectRatio="xMidYMid meet" version="1.0"><defs><clipPath id="ae73e1ddcb"><path d="M 0.820312 0 L 959.179688 0 L 959.179688 584 L 0.820312 584 Z M 0.820312 0 " clip-rule="nonzero"/></clipPath><clipPath id="ce5413f510"><path d="M 466.644531 94.203125 L 528.667969 94.203125 L 528.667969 440.492188 L 466.644531 440.492188 Z M 466.644531 94.203125 " clip-rule="nonzero"/></clipPath><clipPath id="6c16550ae1"><path d="M 407.542969 89.410156 L 583.648438 89.410156 L 583.648438 139.660156 L 407.542969 139.660156 Z M 407.542969 89.410156 " clip-rule="nonzero"/></clipPath><clipPath id="2d422a53a4"><path d="M 409.597656 415.367188 L 585.703125 415.367188 L 585.703125 465.617188 L 409.597656 465.617188 Z M 409.597656 415.367188 " clip-rule="nonzero"/></clipPath><clipPath id="9d1119c583"><path d="M 476 172 L 660 172 L 660 391 L 476 391 Z M 476 172 " clip-rule="nonzero"/></clipPath><clipPath id="0fcb00c151"><path d="M 637.957031 172.488281 L 659.503906 189.835938 L 497.691406 390.816406 L 476.144531 373.472656 Z M 637.957031 172.488281 " clip-rule="nonzero"/></clipPath><clipPath id="3e677a432e"><path d="M 637.957031 172.488281 L 659.503906 189.835938 L 497.746094 390.75 L 476.199219 373.402344 Z M 637.957031 172.488281 " clip-rule="nonzero"/></clipPath><clipPath id="9bfbb4d336"><path d="M 337 173 L 492 173 L 492 355 L 337 355 Z M 337 173 " clip-rule="nonzero"/></clipPath><clipPath id="989f69fbf9"><path d="M 337.164062 192.027344 L 359.785156 173.652344 L 491.863281 336.261719 L 469.238281 354.640625 Z M 337.164062 192.027344 " clip-rule="nonzero"/></clipPath><clipPath id="3d17eb57e2"><path d="M 337.164062 192.027344 L 359.785156 173.652344 L 491.828125 336.222656 L 469.207031 354.597656 Z M 337.164062 192.027344 " clip-rule="nonzero"/></clipPath><clipPath id="07920b8482"><path d="M 635.109375 178.628906 L 668.976562 178.628906 L 668.976562 373.195312 L 635.109375 373.195312 Z M 635.109375 178.628906 " clip-rule="nonzero"/></clipPath><clipPath id="a55f0d8ef3"><path d="M 328.703125 178.628906 L 362.574219 178.628906 L 362.574219 373.195312 L 328.703125 373.195312 Z M 328.703125 178.628906 " clip-rule="nonzero"/></clipPath><clipPath id="0ffb6a5616"><path d="M 638.074219 172.488281 L 668.976562 172.488281 L 668.976562 181.179688 L 638.074219 181.179688 Z M 638.074219 172.488281 " clip-rule="nonzero"/></clipPath><clipPath id="a834d6298f"><path d="M 328.703125 173.65625 L 359.578125 173.65625 L 359.578125 181.925781 L 328.703125 181.925781 Z M 328.703125 173.65625 " clip-rule="nonzero"/></clipPath></defs><g clip-path="url(#ae73e1ddcb)"><path fill="#ffffff" d="M 0.820312 0 L 959.179688 0 L 959.179688 584 L 0.820312 584 Z M 0.820312 0 " fill-opacity="1" fill-rule="nonzero"/><path fill="#ffde02" d="M 0.820312 0 L 959.179688 0 L 959.179688 584 L 0.820312 584 Z M 0.820312 0 " fill-opacity="1" fill-rule="nonzero"/></g><g clip-path="url(#ce5413f510)"><path fill="#010000" d="M 466.644531 94.203125 L 528.667969 94.203125 L 528.667969 440.40625 L 466.644531 440.40625 Z M 466.644531 94.203125 " fill-opacity="1" fill-rule="nonzero"/></g><g clip-path="url(#6c16550ae1)"><path fill="#010000" d="M 583.648438 89.410156 L 583.648438 139.660156 L 407.578125 139.660156 L 407.578125 89.410156 Z M 583.648438 89.410156 " fill-opacity="1" fill-rule="nonzero"/></g><g clip-path="url(#2d422a53a4)"><path fill="#010000" d="M 585.703125 415.367188 L 585.703125 465.617188 L 409.632812 465.617188 L 409.632812 415.367188 Z M 585.703125 415.367188 " fill-opacity="1" fill-rule="nonzero"/></g><g clip-path="url(#9d1119c583)"><g clip-path="url(#0fcb00c151)"><g clip-path="url(#3e677a432e)"><path fill="#010000" d="M 637.957031 172.488281 L 659.503906 189.835938 L 497.757812 390.734375 L 476.214844 373.386719 Z M 637.957031 172.488281 " fill-opacity="1" fill-rule="nonzero"/></g></g></g><g clip-path="url(#9bfbb4d336)"><g clip-path="url(#989f69fbf9)"><g clip-path="url(#3d17eb57e2)"><path fill="#010000" d="M 337.164062 192.027344 L 359.785156 173.652344 L 491.863281 336.261719 L 469.238281 354.640625 Z M 337.164062 192.027344 " fill-opacity="1" fill-rule="nonzero"/></g></g></g><g clip-path="url(#07920b8482)"><path fill="#010000" d="M 635.109375 178.628906 L 668.976562 178.628906 L 668.976562 373.242188 L 635.109375 373.242188 Z M 635.109375 178.628906 " fill-opacity="1" fill-rule="nonzero"/></g><g clip-path="url(#a55f0d8ef3)"><path fill="#010000" d="M 328.703125 178.628906 L 362.574219 178.628906 L 362.574219 373.242188 L 328.703125 373.242188 Z M 328.703125 178.628906 " fill-opacity="1" fill-rule="nonzero"/></g><g clip-path="url(#0ffb6a5616)"><path fill="#010000" d="M 638.074219 172.488281 L 668.964844 172.488281 L 668.964844 181.179688 L 638.074219 181.179688 Z M 638.074219 172.488281 " fill-opacity="1" fill-rule="nonzero"/></g><g clip-path="url(#a834d6298f)"><path fill="#010000" d="M 328.703125 173.65625 L 359.566406 173.65625 L 359.566406 181.925781 L 328.703125 181.925781 Z M 328.703125 173.65625 " fill-opacity="1" fill-rule="nonzero"/></g><path stroke-linecap="butt" transform="matrix(0.74872, 0, 0, 0.74872, 261.733004, 269.921809)" fill="none" stroke-linejoin="miter" d="M 0.00183057 1.998289 L 637.057728 1.998289 " stroke="#010000" stroke-width="4" stroke-opacity="1" stroke-miterlimit="4"/></svg>